<svg width="202" height="31" viewBox="0 0 202 31" fill="none" xmlns="http://www.w3.org/2000/svg">
<path d="M69.2728 21.3125H66.2348C66.0488 21.3125 65.9248 21.1885 65.9248 21.0025V3.70448C65.9248 3.58048 65.8628 3.51848 65.7388 3.51848H60.2208C60.0348 3.51848 59.9108 3.39448 59.9108 3.20848V0.542483C59.9108 0.356481 60.0348 0.232483 60.2208 0.232483H75.2868C75.4728 0.232483 75.5968 0.356481 75.5968 0.542483V3.20848C75.5968 3.39448 75.4728 3.51848 75.2868 3.51848H69.7688C69.6448 3.51848 69.5828 3.58048 69.5828 3.70448V21.0025C69.5828 21.1885 69.4588 21.3125 69.2728 21.3125Z" fill="white"/>
<path d="M42.5006 21.0025L49.7236 0.542483C49.7856 0.356481 49.9096 0.232483 50.1266 0.232483H52.9786C53.1956 0.232483 53.3196 0.356481 53.3816 0.542483L60.5116 21.0025C60.5736 21.1885 60.5116 21.3125 60.2946 21.3125H57.2566C57.0396 21.3125 56.9156 21.2195 56.8536 21.0025L55.4586 16.9105H47.5226L46.1276 21.0025C46.0656 21.2195 45.9416 21.3125 45.7246 21.3125H42.7176C42.5006 21.3125 42.4386 21.1885 42.5006 21.0025ZM48.6386 13.6555H54.3426L51.5526 5.47148H51.4596L48.6386 13.6555Z" fill="white"/>
<path d="M27.375 21.0025V0.542483C27.375 0.356481 27.499 0.232483 27.685 0.232483H30.723C30.909 0.232483 31.033 0.356481 31.033 0.542483V17.8405C31.033 17.9645 31.095 18.0265 31.219 18.0265H40.891C41.077 18.0265 41.201 18.1505 41.201 18.3365V21.0025C41.201 21.1885 41.077 21.3125 40.891 21.3125H27.685C27.499 21.3125 27.375 21.1885 27.375 21.0025Z" fill="white"/>
<path d="M0.25 21.0025V0.542483C0.25 0.356481 0.374 0.232483 0.56 0.232483H8.403C12.867 0.232483 14.975 2.46448 14.975 5.84348C14.975 8.23048 13.859 9.59448 12.526 10.3075V10.3695C13.828 10.8655 15.347 12.5395 15.347 15.1125C15.347 19.2975 12.712 21.3125 8.093 21.3125H0.56C0.374 21.3125 0.25 21.1885 0.25 21.0025ZM4.094 9.00548H8.31C10.17 9.00548 11.317 7.88948 11.317 6.24648C11.317 4.57248 10.17 3.45648 8.31 3.45648H4.094C3.97 3.45648 3.908 3.51848 3.908 3.64248V8.81948C3.908 8.94348 3.97 9.00548 4.094 9.00548ZM3.908 17.9025C3.908 18.0265 3.97 18.0885 4.094 18.0885H8.496C10.542 18.0885 11.689 16.9105 11.689 15.1435C11.689 13.4075 10.542 12.2295 8.496 12.2295H4.094C3.97 12.2295 3.908 12.2915 3.908 12.4155V17.9025Z" fill="white"/>
<path d="M146.761 20.9612H145.703C145.638 20.9612 145.595 20.918 145.595 20.8532V14.8273C145.595 14.7841 145.573 14.7625 145.53 14.7625H143.608C143.543 14.7625 143.5 14.7193 143.5 14.6545V13.7258C143.5 13.661 143.543 13.6178 143.608 13.6178H148.856C148.921 13.6178 148.964 13.661 148.964 13.7258V14.6545C148.964 14.7193 148.921 14.7625 148.856 14.7625H146.934C146.891 14.7625 146.869 14.7841 146.869 14.8273V20.8532C146.869 20.918 146.826 20.9612 146.761 20.9612Z" fill="#209DAB"/>
<path d="M136.975 20.8532V13.7258C136.975 13.661 137.018 13.6178 137.083 13.6178H138.076C138.163 13.6178 138.217 13.6502 138.26 13.7258L141.251 18.7906H141.295V13.7258C141.295 13.661 141.338 13.6178 141.403 13.6178H142.342C142.407 13.6178 142.45 13.661 142.45 13.7258V20.8532C142.45 20.918 142.407 20.9612 142.342 20.9612H141.359C141.273 20.9612 141.219 20.9288 141.176 20.8532L138.174 15.7992H138.13V20.8532C138.13 20.918 138.087 20.9612 138.022 20.9612H137.083C137.018 20.9612 136.975 20.918 136.975 20.8532Z" fill="#209DAB"/>
<path d="M130.816 20.8532V13.7258C130.816 13.661 130.859 13.6178 130.924 13.6178H135.524C135.589 13.6178 135.632 13.661 135.632 13.7258V14.6545C135.632 14.7193 135.589 14.7625 135.524 14.7625H132.155C132.112 14.7625 132.09 14.7841 132.09 14.8273V16.6199C132.09 16.6631 132.112 16.6847 132.155 16.6847H134.995C135.06 16.6847 135.103 16.7279 135.103 16.7927V17.7215C135.103 17.7863 135.06 17.8294 134.995 17.8294H132.155C132.112 17.8294 132.09 17.851 132.09 17.8942V19.7517C132.09 19.7949 132.112 19.8165 132.155 19.8165H135.524C135.589 19.8165 135.632 19.8597 135.632 19.9245V20.8532C135.632 20.918 135.589 20.9612 135.524 20.9612H130.924C130.859 20.9612 130.816 20.918 130.816 20.8532Z" fill="#209DAB"/>
<path d="M122.653 20.8532V13.7258C122.653 13.661 122.697 13.6178 122.761 13.6178H123.722C123.82 13.6178 123.874 13.6502 123.906 13.7258L125.925 18.2506H125.969L127.956 13.7258C127.988 13.6502 128.042 13.6178 128.139 13.6178H129.09C129.154 13.6178 129.198 13.661 129.198 13.7258V20.8532C129.198 20.918 129.154 20.9612 129.09 20.9612H128.15C128.085 20.9612 128.042 20.918 128.042 20.8532V16.3608H127.999L126.444 19.8165C126.401 19.9137 126.336 19.9569 126.239 19.9569H125.612C125.515 19.9569 125.45 19.9137 125.407 19.8165L123.852 16.3608H123.809V20.8532C123.809 20.918 123.766 20.9612 123.701 20.9612H122.761C122.697 20.9612 122.653 20.918 122.653 20.8532Z" fill="#209DAB"/>
<path d="M116.494 20.8532V13.7258C116.494 13.661 116.538 13.6178 116.602 13.6178H121.203C121.268 13.6178 121.311 13.661 121.311 13.7258V14.6545C121.311 14.7193 121.268 14.7625 121.203 14.7625H117.833C117.79 14.7625 117.769 14.7841 117.769 14.8273V16.6199C117.769 16.6631 117.79 16.6847 117.833 16.6847H120.674C120.738 16.6847 120.782 16.7279 120.782 16.7927V17.7215C120.782 17.7863 120.738 17.8294 120.674 17.8294H117.833C117.79 17.8294 117.769 17.851 117.769 17.8942V19.7517C117.769 19.7949 117.79 19.8165 117.833 19.8165H121.203C121.268 19.8165 121.311 19.8597 121.311 19.9245V20.8532C121.311 20.918 121.268 20.9612 121.203 20.9612H116.602C116.538 20.9612 116.494 20.918 116.494 20.8532Z" fill="#209DAB"/>
<path d="M109.702 19.3089C109.551 18.8554 109.508 18.445 109.508 17.2895C109.508 16.134 109.551 15.7236 109.702 15.27C110.08 14.1037 111.03 13.499 112.326 13.499C113.698 13.499 114.583 14.2333 114.886 15.054C114.907 15.108 114.897 15.1728 114.843 15.2052L113.935 15.6048C113.871 15.6264 113.817 15.594 113.795 15.5508C113.471 14.9677 113.028 14.6437 112.316 14.6437C111.57 14.6437 111.138 15.0108 110.933 15.6048C110.847 15.8748 110.804 16.242 110.804 17.2895C110.804 18.3262 110.847 18.7042 110.933 18.9741C111.138 19.5681 111.57 19.9353 112.316 19.9353C112.964 19.9353 113.514 19.6113 113.709 19.0173C113.784 18.7906 113.827 18.4882 113.827 18.067C113.827 18.0238 113.806 18.0022 113.763 18.0022H112.553C112.488 18.0022 112.445 17.959 112.445 17.8942V17.0303C112.445 16.9655 112.488 16.9223 112.553 16.9223H114.983C115.048 16.9223 115.091 16.9655 115.091 17.0303V17.6674C115.091 18.2722 115.037 18.9094 114.918 19.2765C114.562 20.4212 113.59 21.08 112.326 21.08C111.03 21.08 110.08 20.4752 109.702 19.3089Z" fill="#209DAB"/>
<path d="M102.707 20.8532L105.223 13.7258C105.245 13.661 105.288 13.6178 105.364 13.6178H106.357C106.433 13.6178 106.476 13.661 106.497 13.7258L108.981 20.8532C109.003 20.918 108.981 20.9612 108.906 20.9612H107.847C107.772 20.9612 107.729 20.9288 107.707 20.8532L107.221 19.4277H104.456L103.97 20.8532C103.949 20.9288 103.906 20.9612 103.83 20.9612H102.783C102.707 20.9612 102.685 20.918 102.707 20.8532ZM104.845 18.2938H106.832L105.86 15.4428H105.828L104.845 18.2938Z" fill="#209DAB"/>
<path d="M96.2249 20.8532V13.7258C96.2249 13.661 96.2681 13.6178 96.3328 13.6178H97.3264C97.4128 13.6178 97.4668 13.6502 97.51 13.7258L100.501 18.7906H100.545V13.7258C100.545 13.661 100.588 13.6178 100.653 13.6178H101.592C101.657 13.6178 101.7 13.661 101.7 13.7258V20.8532C101.7 20.918 101.657 20.9612 101.592 20.9612H100.609C100.523 20.9612 100.469 20.9288 100.426 20.8532L97.4236 15.7992H97.3804V20.8532C97.3804 20.918 97.3372 20.9612 97.2724 20.9612H96.3328C96.2681 20.9612 96.2249 20.918 96.2249 20.8532Z" fill="#209DAB"/>
<path d="M88.9442 20.8532L91.4604 13.7258C91.482 13.661 91.5252 13.6178 91.6008 13.6178H92.5943C92.6699 13.6178 92.7131 13.661 92.7347 13.7258L95.2185 20.8532C95.2401 20.918 95.2185 20.9612 95.1429 20.9612H94.0846C94.009 20.9612 93.9658 20.9288 93.9442 20.8532L93.4583 19.4277H90.6937L90.2077 20.8532C90.1861 20.9288 90.1429 20.9612 90.0673 20.9612H89.0198C88.9442 20.9612 88.9226 20.918 88.9442 20.8532ZM91.0825 18.2938H93.0695L92.0976 15.4428H92.0652L91.0825 18.2938Z" fill="#209DAB"/>
<path d="M81.3971 20.8532V13.7258C81.3971 13.661 81.4403 13.6178 81.5051 13.6178H82.4662C82.5634 13.6178 82.6174 13.6502 82.6498 13.7258L84.6692 18.2506H84.7124L86.6995 13.7258C86.7319 13.6502 86.7859 13.6178 86.8831 13.6178H87.8334C87.8982 13.6178 87.9414 13.661 87.9414 13.7258V20.8532C87.9414 20.918 87.8982 20.9612 87.8334 20.9612H86.8939C86.8291 20.9612 86.7859 20.918 86.7859 20.8532V16.3608H86.7427L85.1876 19.8165C85.1444 19.9137 85.0796 19.9569 84.9824 19.9569H84.3561C84.2589 19.9569 84.1941 19.9137 84.1509 19.8165L82.5958 16.3608H82.5526V20.8532C82.5526 20.918 82.5094 20.9612 82.4446 20.9612H81.5051C81.4403 20.9612 81.3971 20.918 81.3971 20.8532Z" fill="#209DAB"/>
<path d="M198.481 7.58103C197.401 7.58103 196.354 7.14906 195.781 6.6091C195.738 6.5659 195.716 6.50111 195.76 6.44711L196.429 5.66957C196.472 5.61557 196.537 5.61558 196.58 5.65877C197.056 6.03674 197.757 6.43631 198.578 6.43631C199.453 6.43631 199.961 5.99355 199.961 5.37799C199.961 4.84883 199.637 4.50326 198.621 4.36287L198.233 4.30887C196.818 4.11449 196.019 3.43414 196.019 2.21383C196.019 0.885533 196.991 0 198.503 0C199.421 0 200.295 0.291578 200.878 0.734345C200.932 0.777541 200.943 0.820738 200.9 0.885533L200.382 1.68467C200.338 1.73867 200.284 1.74947 200.23 1.71707C199.637 1.3283 199.086 1.14471 198.47 1.14471C197.725 1.14471 197.315 1.55508 197.315 2.12744C197.315 2.635 197.671 2.98057 198.665 3.12096L199.053 3.17496C200.468 3.36935 201.246 4.03889 201.246 5.3024C201.246 6.6091 200.306 7.58103 198.481 7.58103Z" fill="#209DAB"/>
<path d="M192.922 7.46225H191.863C191.798 7.46225 191.755 7.41905 191.755 7.35426V1.32831C191.755 1.28512 191.734 1.26352 191.69 1.26352H189.768C189.703 1.26352 189.66 1.22032 189.66 1.15553V0.226797C189.66 0.162001 189.703 0.118805 189.768 0.118805H195.017C195.081 0.118805 195.125 0.162001 195.125 0.226797V1.15553C195.125 1.22032 195.081 1.26352 195.017 1.26352H193.094C193.051 1.26352 193.029 1.28512 193.029 1.32831V7.35426C193.029 7.41905 192.986 7.46225 192.922 7.46225Z" fill="#209DAB"/>
<path d="M183.135 7.35426V0.226797C183.135 0.162001 183.178 0.118805 183.243 0.118805H184.237C184.323 0.118805 184.377 0.151202 184.42 0.226797L187.411 5.29161H187.455V0.226797C187.455 0.162001 187.498 0.118805 187.563 0.118805H188.502C188.567 0.118805 188.61 0.162001 188.61 0.226797V7.35426C188.61 7.41905 188.567 7.46225 188.502 7.46225H187.519C187.433 7.46225 187.379 7.42985 187.336 7.35426L184.334 2.30024H184.291V7.35426C184.291 7.41905 184.247 7.46225 184.183 7.46225H183.243C183.178 7.46225 183.135 7.41905 183.135 7.35426Z" fill="#209DAB"/>
<path d="M176.976 7.35426V0.226797C176.976 0.162001 177.019 0.118805 177.084 0.118805H181.685C181.749 0.118805 181.793 0.162001 181.793 0.226797V1.15553C181.793 1.22032 181.749 1.26352 181.685 1.26352H178.315C178.272 1.26352 178.25 1.28512 178.25 1.32831V3.12098C178.25 3.16417 178.272 3.18577 178.315 3.18577H181.155C181.22 3.18577 181.263 3.22897 181.263 3.29376V4.22249C181.263 4.28729 181.22 4.33048 181.155 4.33048H178.315C178.272 4.33048 178.25 4.35208 178.25 4.39528V6.25274C178.25 6.29594 178.272 6.31753 178.315 6.31753H181.685C181.749 6.31753 181.793 6.36073 181.793 6.42553V7.35426C181.793 7.41905 181.749 7.46225 181.685 7.46225H177.084C177.019 7.46225 176.976 7.41905 176.976 7.35426Z" fill="#209DAB"/>
<path d="M168.813 7.35426V0.226797C168.813 0.162001 168.857 0.118805 168.921 0.118805H169.883C169.98 0.118805 170.034 0.151202 170.066 0.226797L172.086 4.75165H172.129L174.116 0.226797C174.148 0.151202 174.202 0.118805 174.299 0.118805H175.25C175.315 0.118805 175.358 0.162001 175.358 0.226797V7.35426C175.358 7.41905 175.315 7.46225 175.25 7.46225H174.31C174.245 7.46225 174.202 7.41905 174.202 7.35426V2.8618H174.159L172.604 6.31753C172.561 6.41473 172.496 6.45792 172.399 6.45792H171.772C171.675 6.45792 171.61 6.41473 171.567 6.31753L170.012 2.8618H169.969V7.35426C169.969 7.41905 169.926 7.46225 169.861 7.46225H168.921C168.857 7.46225 168.813 7.41905 168.813 7.35426Z" fill="#209DAB"/>
<path d="M162.655 7.35426V0.226797C162.655 0.162001 162.698 0.118805 162.763 0.118805H167.363C167.428 0.118805 167.471 0.162001 167.471 0.226797V1.15553C167.471 1.22032 167.428 1.26352 167.363 1.26352H163.994C163.95 1.26352 163.929 1.28512 163.929 1.32831V3.12098C163.929 3.16417 163.95 3.18577 163.994 3.18577H166.834C166.899 3.18577 166.942 3.22897 166.942 3.29376V4.22249C166.942 4.28729 166.899 4.33048 166.834 4.33048H163.994C163.95 4.33048 163.929 4.35208 163.929 4.39528V6.25274C163.929 6.29594 163.95 6.31753 163.994 6.31753H167.363C167.428 6.31753 167.471 6.36073 167.471 6.42553V7.35426C167.471 7.41905 167.428 7.46225 167.363 7.46225H162.763C162.698 7.46225 162.655 7.41905 162.655 7.35426Z" fill="#209DAB"/>
<path d="M156.496 7.35426V0.226797C156.496 0.162001 156.539 0.118805 156.604 0.118805H161.204C161.269 0.118805 161.312 0.162001 161.312 0.226797V1.15553C161.312 1.22032 161.269 1.26352 161.204 1.26352H157.835C157.792 1.26352 157.77 1.28512 157.77 1.32831V3.12098C157.77 3.16417 157.792 3.18577 157.835 3.18577H160.675C160.74 3.18577 160.783 3.22897 160.783 3.29376V4.22249C160.783 4.28729 160.74 4.33048 160.675 4.33048H157.835C157.792 4.33048 157.77 4.35208 157.77 4.39528V6.25274C157.77 6.29594 157.792 6.31753 157.835 6.31753H161.204C161.269 6.31753 161.312 6.36073 161.312 6.42553V7.35426C161.312 7.41905 161.269 7.46225 161.204 7.46225H156.604C156.539 7.46225 156.496 7.41905 156.496 7.35426Z" fill="#209DAB"/>
<path d="M155.177 7.46225H153.978C153.892 7.46225 153.848 7.42985 153.816 7.35426L152.412 4.49247H151.149C151.105 4.49247 151.084 4.51407 151.084 4.55727V7.35426C151.084 7.41905 151.041 7.46225 150.976 7.46225H149.917C149.853 7.46225 149.809 7.41905 149.809 7.35426V0.226797C149.809 0.162001 149.853 0.118805 149.917 0.118805H152.758C154.108 0.118805 155.101 1.01514 155.101 2.31104C155.101 3.27217 154.55 4.01731 153.708 4.33048L155.252 7.32186C155.295 7.39745 155.252 7.46225 155.177 7.46225ZM152.714 3.34776C153.384 3.34776 153.838 2.93739 153.838 2.31104C153.838 1.67389 153.384 1.26352 152.714 1.26352H151.149C151.105 1.26352 151.084 1.28512 151.084 1.32831V3.28296C151.084 3.32616 151.105 3.34776 151.149 3.34776H152.714Z" fill="#209DAB"/>
<path d="M143.017 5.80996C142.866 5.35639 142.823 4.94603 142.823 3.79051C142.823 2.635 142.866 2.22463 143.017 1.77107C143.395 0.604754 144.346 0 145.641 0C147.013 0 147.898 0.734345 148.201 1.55508C148.222 1.60908 148.212 1.67387 148.158 1.70627L147.251 2.10584C147.186 2.12744 147.132 2.09504 147.11 2.05184C146.786 1.46869 146.343 1.14471 145.631 1.14471C144.886 1.14471 144.454 1.51189 144.248 2.10584C144.162 2.37582 144.119 2.74299 144.119 3.79051C144.119 4.82723 144.162 5.20521 144.248 5.47519C144.454 6.06914 144.886 6.43631 145.631 6.43631C146.279 6.43631 146.829 6.11234 147.024 5.51838C147.099 5.2916 147.143 4.98922 147.143 4.56805C147.143 4.52486 147.121 4.50326 147.078 4.50326H145.868C145.803 4.50326 145.76 4.46006 145.76 4.39527V3.53133C145.76 3.46654 145.803 3.42334 145.868 3.42334H148.298C148.363 3.42334 148.406 3.46654 148.406 3.53133V4.16848C148.406 4.77324 148.352 5.41039 148.233 5.77756C147.877 6.92228 146.905 7.58103 145.641 7.58103C144.346 7.58103 143.395 6.97627 143.017 5.80996Z" fill="#209DAB"/>
<path d="M136.022 7.35426L138.538 0.226797C138.56 0.162001 138.603 0.118805 138.678 0.118805H139.672C139.748 0.118805 139.791 0.162001 139.812 0.226797L142.296 7.35426C142.318 7.41905 142.296 7.46225 142.221 7.46225H141.162C141.087 7.46225 141.043 7.42985 141.022 7.35426L140.536 5.92876H137.771L137.285 7.35426C137.264 7.42985 137.221 7.46225 137.145 7.46225H136.097C136.022 7.46225 136 7.41905 136.022 7.35426ZM138.16 4.79485H140.147L139.175 1.94387H139.143L138.16 4.79485Z" fill="#209DAB"/>
<path d="M128.201 7.35426V0.226797C128.201 0.162001 128.244 0.118805 128.309 0.118805H129.367C129.432 0.118805 129.475 0.162001 129.475 0.226797V6.25274C129.475 6.29594 129.496 6.31753 129.54 6.31753H132.909C132.974 6.31753 133.017 6.36073 133.017 6.42553V7.35426C133.017 7.41905 132.974 7.46225 132.909 7.46225H128.309C128.244 7.46225 128.201 7.41905 128.201 7.35426Z" fill="#209DAB"/>
<path d="M120.92 7.35426L123.436 0.226797C123.458 0.162001 123.501 0.118805 123.577 0.118805H124.57C124.646 0.118805 124.689 0.162001 124.71 0.226797L127.194 7.35426C127.216 7.41905 127.194 7.46225 127.119 7.46225H126.06C125.985 7.46225 125.942 7.42985 125.92 7.35426L125.434 5.92876H122.669L122.183 7.35426C122.162 7.42985 122.119 7.46225 122.043 7.46225H120.996C120.92 7.46225 120.898 7.41905 120.92 7.35426ZM123.058 4.79485H125.045L124.073 1.94387H124.041L123.058 4.79485Z" fill="#209DAB"/>
<path d="M120.216 7.46225H119.018C118.931 7.46225 118.888 7.42985 118.856 7.35426L117.452 4.49247H116.188C116.145 4.49247 116.124 4.51407 116.124 4.55727V7.35426C116.124 7.41905 116.08 7.46225 116.016 7.46225H114.957C114.892 7.46225 114.849 7.41905 114.849 7.35426V0.226797C114.849 0.162001 114.892 0.118805 114.957 0.118805H117.797C119.147 0.118805 120.141 1.01514 120.141 2.31104C120.141 3.27217 119.59 4.01731 118.748 4.33048L120.292 7.32186C120.335 7.39745 120.292 7.46225 120.216 7.46225ZM117.754 3.34776C118.424 3.34776 118.877 2.93739 118.877 2.31104C118.877 1.67389 118.424 1.26352 117.754 1.26352H116.188C116.145 1.26352 116.124 1.28512 116.124 1.32831V3.28296C116.124 3.32616 116.145 3.34776 116.188 3.34776H117.754Z" fill="#209DAB"/>
<path d="M108.69 7.35426V0.226797C108.69 0.162001 108.734 0.118805 108.798 0.118805H113.399C113.464 0.118805 113.507 0.162001 113.507 0.226797V1.15553C113.507 1.22032 113.464 1.26352 113.399 1.26352H110.029C109.986 1.26352 109.965 1.28512 109.965 1.32831V3.12098C109.965 3.16417 109.986 3.18577 110.029 3.18577H112.87C112.934 3.18577 112.978 3.22897 112.978 3.29376V4.22249C112.978 4.28729 112.934 4.33048 112.87 4.33048H110.029C109.986 4.33048 109.965 4.35208 109.965 4.39528V6.25274C109.965 6.29594 109.986 6.31753 110.029 6.31753H113.399C113.464 6.31753 113.507 6.36073 113.507 6.42553V7.35426C113.507 7.41905 113.464 7.46225 113.399 7.46225H108.798C108.734 7.46225 108.69 7.41905 108.69 7.35426Z" fill="#209DAB"/>
<path d="M105.442 7.46225H104.383C104.319 7.46225 104.275 7.41905 104.275 7.35426V1.32831C104.275 1.28512 104.254 1.26352 104.211 1.26352H102.288C102.224 1.26352 102.18 1.22032 102.18 1.15553V0.226797C102.18 0.162001 102.224 0.118805 102.288 0.118805H107.537C107.602 0.118805 107.645 0.162001 107.645 0.226797V1.15553C107.645 1.22032 107.602 1.26352 107.537 1.26352H105.615C105.571 1.26352 105.55 1.28512 105.55 1.32831V7.35426C105.55 7.41905 105.507 7.46225 105.442 7.46225Z" fill="#209DAB"/>
<path d="M96.1156 7.35426L98.6318 0.226797C98.6534 0.162001 98.6966 0.118805 98.7722 0.118805H99.7657C99.8413 0.118805 99.8845 0.162001 99.9061 0.226797L102.39 7.35426C102.412 7.41905 102.39 7.46225 102.314 7.46225H101.256C101.18 7.46225 101.137 7.42985 101.116 7.35426L100.63 5.92876H97.8651L97.3791 7.35426C97.3575 7.42985 97.3143 7.46225 97.2387 7.46225H96.1912C96.1156 7.46225 96.094 7.41905 96.1156 7.35426ZM98.2538 4.79485H100.241L99.269 1.94387H99.2366L98.2538 4.79485Z" fill="#209DAB"/>
<path d="M90.8464 7.35426V0.226797C90.8464 0.162001 90.8896 0.118805 90.9544 0.118805H92.0127C92.0775 0.118805 92.1207 0.162001 92.1207 0.226797V6.25274C92.1207 6.29594 92.1423 6.31753 92.1855 6.31753H95.5549C95.6197 6.31753 95.6629 6.36073 95.6629 6.42553V7.35426C95.6629 7.41905 95.6197 7.46225 95.5549 7.46225H90.9544C90.8896 7.46225 90.8464 7.41905 90.8464 7.35426Z" fill="#209DAB"/>
<path d="M87.9568 7.35426V0.226797C87.9568 0.162001 88 0.118805 88.0648 0.118805H89.1231C89.1879 0.118805 89.2311 0.162001 89.2311 0.226797V7.35426C89.2311 7.41905 89.1879 7.46225 89.1231 7.46225H88.0648C88 7.46225 87.9568 7.41905 87.9568 7.35426Z" fill="#209DAB"/>
<path d="M81.3971 7.35426V0.226797C81.3971 0.162001 81.4403 0.118805 81.5051 0.118805H84.2373C85.7924 0.118805 86.5267 0.896345 86.5267 2.07346C86.5267 2.90499 86.1379 3.38016 85.6736 3.62854V3.65014C86.1271 3.82292 86.6563 4.40608 86.6563 5.30241C86.6563 6.7603 85.7384 7.46225 84.1293 7.46225H81.5051C81.4403 7.46225 81.3971 7.41905 81.3971 7.35426ZM82.7362 3.17497H84.2049C84.8528 3.17497 85.2524 2.7862 85.2524 2.21385C85.2524 1.63069 84.8528 1.24192 84.2049 1.24192H82.7362C82.693 1.24192 82.6714 1.26352 82.6714 1.30671V3.11018C82.6714 3.15337 82.693 3.17497 82.7362 3.17497ZM82.6714 6.27434C82.6714 6.31753 82.693 6.33913 82.7362 6.33913H84.2697C84.9824 6.33913 85.382 5.92876 85.382 5.31321C85.382 4.70846 84.9824 4.29809 84.2697 4.29809H82.7362C82.693 4.29809 82.6714 4.31969 82.6714 4.36288V6.27434Z" fill="#209DAB"/>
<path d="M23.2336 28.597H25.614V30.9761H23.2336V28.597Z" fill="#209DAB"/>
<path d="M44.6569 27.9786C44.2284 28.4068 43.6095 28.6447 43.0858 28.5734C42.7526 28.5258 42.5384 28.3593 42.3717 28.0976L41.2291 25.5282C41.2291 25.5044 41.2053 25.4806 41.1815 25.4568C40.634 24.4576 39.5629 23.8628 38.4203 23.9818C37.2777 24.0769 36.3256 24.862 35.9923 25.9564L35.183 28.5496C35.183 28.5734 35.1592 28.6209 35.1116 28.6209C35.0402 28.6209 35.0402 28.5971 35.0164 28.5734L34.6831 27.9072C34.2784 27.0745 33.4929 26.5749 32.5884 26.5274C31.7076 26.5036 30.8507 26.9556 30.327 27.7407L29.8271 28.3117C29.6605 28.502 29.4225 28.6209 29.1606 28.6209H27.9705V31H29.1606C30.1128 31 31.0173 30.5956 31.6362 29.8581L32.1837 29.2157C32.2313 29.1681 32.2551 29.1205 32.3027 29.0492C32.3741 28.9302 32.4456 28.8826 32.4932 28.9064C32.4932 28.9064 32.517 28.9064 32.5646 28.9778L32.8978 29.6439C33.3263 30.5004 34.1833 31 35.1116 31H35.3258C36.3256 30.9286 37.1825 30.2387 37.492 29.2633L38.3013 26.6701C38.3727 26.4322 38.5631 26.3846 38.6821 26.3608C38.7773 26.3608 38.9678 26.3608 39.0868 26.575L40.2294 29.1443C40.2294 29.1681 40.2532 29.1919 40.277 29.2157C40.8007 30.1911 41.6814 30.8097 42.7526 30.9524C44.0142 31.1428 45.3948 30.6669 46.347 29.6915L47.1801 28.8589L45.49 27.1697L44.6569 27.9786Z" fill="#209DAB"/>
<path d="M18.2111 23.1254C18.2111 25.9327 19.0442 28.6449 20.5914 30.9763C22.1387 28.6448 22.9718 25.9087 22.9718 23.1254V16.6535H18.2111V23.1254Z" fill="#209DAB"/>
<path d="M22.9717 2.37906H21.7815V0H19.4011V2.37906H20.5913V11.8953H18.2109V14.2744H22.9717V2.37906Z" fill="#209DAB"/>
</svg>
